<svg width="291" height="253" viewBox="0 0 291 253" fill="none" xmlns="http://www.w3.org/2000/svg">
<path fill-rule="evenodd" clip-rule="evenodd" d="M199.144 158.547L187.489 249.797L193.599 249.717L205.254 159.401L199.144 158.547Z" fill="#D2D2D2"/>
<path fill-rule="evenodd" clip-rule="evenodd" d="M204.1 158.547L215.755 249.797L209.644 249.717L197.99 159.401L204.1 158.547Z" fill="#D2D2D2"/>
<path fill-rule="evenodd" clip-rule="evenodd" d="M239.628 158.547L251.283 249.797L245.173 249.717L233.518 159.401L239.628 158.547Z" fill="#D2D2D2"/>
<path fill-rule="evenodd" clip-rule="evenodd" d="M160.685 172.891C155.42 172.891 151.151 168.623 151.151 163.357C151.151 158.092 155.42 153.824 160.685 153.824H199.428C205.146 153.824 209.926 149.476 210.467 143.784L216.636 78.7869C217.176 73.0946 221.956 68.7466 227.674 68.7466H252.222C258.683 68.7466 263.776 74.2495 263.277 80.6917L256.921 162.66C256.473 168.434 251.658 172.891 245.866 172.891H160.685Z" fill="#D2D2D2"/>
<path fill-rule="evenodd" clip-rule="evenodd" d="M151.153 163.277C151.178 163.277 151.203 163.277 151.228 163.277H236.181C241.972 163.277 246.787 158.822 247.236 153.049L253.587 71.3721C253.654 70.5116 253.621 69.6678 253.498 68.8516C252.997 68.7824 252.485 68.7466 251.963 68.7466H227.529C221.813 68.7466 217.033 73.0929 216.491 78.7839L210.327 143.545C209.785 149.236 205.005 153.582 199.289 153.582H160.66C155.408 153.582 151.151 157.839 151.151 163.091C151.151 163.153 151.152 163.215 151.153 163.277Z" fill="#B2B0B0"/>
<path fill-rule="evenodd" clip-rule="evenodd" d="M159.197 220.437C159.197 220.437 164.27 232.462 160.112 235.649C155.947 238.838 147.847 246.721 147.847 246.721L174.091 241.094L167.613 219.033L159.197 220.437Z" fill="url(#paint0_linear)"/>
<path fill-rule="evenodd" clip-rule="evenodd" d="M160.706 228.355C160.706 228.355 161.35 233.998 159.489 235.924C157.628 237.849 147.551 245.178 146.762 246.569C145.973 247.961 147.384 249.495 147.384 249.495C147.384 249.495 158.268 250.43 163.163 247.49C166.697 245.366 171.967 241.553 171.967 241.553L173.363 245.303L177.32 245.143C177.32 245.143 177.844 240.522 176.905 238.307C175.966 236.091 171.131 224.814 171.131 224.814C171.131 224.814 169.269 226.467 167.291 227.3C165.314 228.132 162.836 230.411 162.836 230.411L160.706 228.355Z" fill="#323740"/>
<path fill-rule="evenodd" clip-rule="evenodd" d="M203.106 131.285C194.283 131.674 145.173 142.397 136.251 144.219C127.329 146.041 119.785 155.899 126.589 167.315C134.231 180.129 153.947 216.522 158.735 224.725C161.104 228.786 173.057 226.509 170.249 219.694C165.015 206.989 162.585 175.073 149.24 163.436C149.24 163.436 194.118 171.147 213.504 162.314C227.592 155.894 224.405 130.344 203.106 131.285Z" fill="#42474F"/>
<path fill-rule="evenodd" clip-rule="evenodd" d="M141.551 74.9982C141.551 74.9982 141.651 67.9102 139.139 64.2059C136.628 60.5016 136.528 56.5669 134.628 56.6957C132.727 56.8245 134.609 65.9702 134.609 65.9702C134.609 65.9702 132.197 65.0606 130.465 63.9101C128.732 62.7596 123.479 57.0876 122.251 58.0927C120.17 59.8053 123.523 69.4656 125.349 71.3969C127.181 73.3288 137.189 79.6817 137.189 79.6817L161.702 104.429L166.304 91.857L141.551 74.9982Z" fill="#FFE0D1"/>
<path fill-rule="evenodd" clip-rule="evenodd" d="M195.778 72.6603C191.674 82.0591 184.158 99.3251 181.06 104.476C177.177 110.927 171.054 113.77 163.886 108.983C161.983 107.712 156.185 102.858 156.185 102.858L163.201 87.6135L167.752 91.3215C167.752 91.3215 175.455 71.8269 181.651 60.5338C187.018 50.7635 202.026 58.3718 195.778 72.6603Z" fill="#FFB66F"/>
<path fill-rule="evenodd" clip-rule="evenodd" d="M167.668 91.3316C167.668 91.3316 165.599 98.2596 165.115 97.8585C164.632 97.4573 165.485 89.521 165.485 89.521L167.668 91.3316Z" fill="black" fill-opacity="0.159856"/>
<path fill-rule="evenodd" clip-rule="evenodd" d="M164.942 88.4572L159.075 107.857L152.843 103.028L161.517 85.83L164.942 88.4572Z" fill="#FFEDC2"/>
<path fill-rule="evenodd" clip-rule="evenodd" d="M203.278 7.0861C203.278 7.0861 206.371 2.05129 211.256 2.4175C216.141 2.78371 222.052 10.1367 221.722 18.2995C221.403 26.4612 223.218 27.7408 226.712 32.4528C236.101 45.1301 221.51 60.0304 221.51 60.0304L202.167 60.0805L201.514 24.4815L203.278 7.0861Z" fill="#42474F"/>
<path fill-rule="evenodd" clip-rule="evenodd" d="M210.943 10.0103C224.103 18.8828 216.525 29.2324 215.199 31.6614C212.622 49.3191 217.848 50.2134 225.728 54.1395L222.972 58.9989L211.671 56.9192L202.242 10.9217L210.943 10.0103Z" fill="black" fill-opacity="0.199355"/>
<path fill-rule="evenodd" clip-rule="evenodd" d="M217.114 52.9668C217.114 52.9668 210.393 51.6331 210.193 42.324C209.993 33.015 211.1 29.8374 211.1 29.8374L198.425 29.6116C198.425 29.6116 198.287 39.9863 198.285 43.7389C198.28 52.8632 191.166 53.9215 191.166 53.9215C191.166 53.9215 192.645 61.1392 204.13 61.7768C213.098 62.2754 217.114 52.9668 217.114 52.9668Z" fill="#F9C7B0"/>
<path fill-rule="evenodd" clip-rule="evenodd" d="M210.66 9.6824C211.134 4.30931 202.178 3.02383 200.509 7.17694C200.509 7.17694 200.045 10.8757 202.957 12.3119C206.896 14.2466 210.66 9.6824 210.66 9.6824Z" fill="#FB9934"/>
<path fill-rule="evenodd" clip-rule="evenodd" d="M211.825 23.5168C217.311 22.1299 218.108 30.3154 212.36 31.5258C212.36 31.5258 211.437 43.5909 199.851 46.0536C190.442 48.0536 187.016 34.9484 186.37 32.3263C185.679 29.5306 183.702 20.2845 183.702 20.2845L210.165 14.6469L211.825 23.5168Z" fill="#FFE0D1"/>
<path fill-rule="evenodd" clip-rule="evenodd" d="M209.97 29.0638C208.974 29.0098 207.622 23.9021 207.622 23.9021C204.687 23.9487 204.057 23.426 201.195 20.4294C192.161 24.4299 185.869 26.4026 186.492 33.4163C186.492 33.4163 176.034 19.1389 187.285 10.8826C197.183 3.62748 209.716 5.80325 213.561 13.9822C216.28 19.7544 215.592 24.5643 215.592 24.5643C215.592 24.5643 213.679 22.6146 211.445 23.6779C209.211 24.7413 210.966 29.1178 209.97 29.0638Z" fill="#42474F"/>
<path d="M200.461 37.9501C200.461 37.9501 198.192 40.8436 194.536 39.3628" stroke="#F77B7B" stroke-width="1.5" stroke-linecap="round"/>
<path d="M199.207 41.0088C198.432 41.5825 197.611 41.7867 196.79 41.5535" stroke="#F49494" stroke-linecap="round"/>
<path d="M212.175 27.9355C211.846 26.6654 212.025 25.5628 213.307 25.0766" stroke="#F77B7B" stroke-linecap="round"/>
<path fill-rule="evenodd" clip-rule="evenodd" d="M193.815 52.6778C193.661 52.6705 188.24 55.0185 187.616 55.9237C183.55 61.821 176.084 82.5773 175.699 87.0801C175.266 92.274 182.84 100.548 182.933 108.067C183.016 115.587 179.693 138.229 180.982 140.344C182.261 142.459 190.664 152.506 192.417 152.547C194.18 152.588 195.496 147.313 198.166 147.427C200.826 147.542 206.373 154.536 208.765 154.486C211.147 154.434 235.831 138.976 233.944 134.572C232.047 130.168 223.241 119.223 224.139 113.222C225.025 107.222 232.109 85.0726 234.666 77.5341C237.212 69.9957 239.264 63.9906 234.511 60.7468C229.758 57.503 214.292 51.5696 214.292 51.5696L200.445 59.2268C200.445 59.2268 194.619 52.7161 193.815 52.6778Z" fill="#FF9F43"/>
<path fill-rule="evenodd" clip-rule="evenodd" d="M198.741 59.014C194.588 72.6669 188.888 86.1196 186.605 98.9217L193.245 95.3852L199.369 99.9727C198.937 86.6628 201.197 72.6875 202.237 59.014L198.741 59.014Z" fill="#FFF6E1"/>
<path fill-rule="evenodd" clip-rule="evenodd" d="M222.998 69.4972L223.156 70.6013C225.017 84.3117 222.815 100.949 218.999 103.487C215.104 106.078 199.944 103.535 199.944 105.587C199.944 107.639 220.894 126.444 217.455 135.434C215.564 140.377 216.197 144.772 219.355 148.621L220.272 148.012C227.427 143.214 235.024 137.089 233.946 134.572C232.049 130.168 223.244 119.223 224.141 113.222C224.992 107.462 231.554 86.8187 234.34 78.5069L235.227 75.8717C236.259 72.7818 237.117 69.9828 237.325 67.5678L236.685 67.1575C226.452 60.6731 221.89 61.4532 222.998 69.4972Z" fill="black" fill-opacity="0.159856"/>
<path fill-rule="evenodd" clip-rule="evenodd" d="M216.846 52.5364L214.291 51.5696L200.14 58.8306C200.14 58.8306 202.801 65.5241 207.512 62.1909C211.551 59.3406 209.847 56.8325 213.013 55.5386C216.169 54.2448 216.846 52.5364 216.846 52.5364Z" fill="#FFF6E1"/>
<path fill-rule="evenodd" clip-rule="evenodd" d="M200.143 58.8305C199.117 61.0828 197.031 62.3989 195.953 61.9898C194.174 61.314 194.938 58.6215 194.236 57.2614C193.734 56.2964 193.41 56.1507 192.97 55.2447C192.562 54.4136 192.545 53.4161 192.649 53.1408L194.042 52.5154C194.042 52.5154 195.955 54.2989 196.845 55.2447C197.954 56.4234 200.143 58.8305 200.143 58.8305Z" fill="#FFF6E1"/>
<path fill-rule="evenodd" clip-rule="evenodd" d="M215.719 94.9924C215.719 94.9924 207.388 87.7126 204.838 86.8678C202.287 86.023 187.35 85.0081 187.445 86.9171C187.552 88.9623 195.574 88.8446 196.406 89.8508C197.237 90.8565 197.426 97.7333 200.568 98.5054C203.704 99.2775 213.106 100.609 213.106 100.609L235.595 113.999L236.556 101.764L215.719 94.9924Z" fill="#FFE0D1"/>
<path fill-rule="evenodd" clip-rule="evenodd" d="M237.887 64.1692C246.664 76.3996 254.158 95.0293 257.035 102.293C259.911 109.556 257.009 120.511 244.361 118.36C242.224 117.997 237.434 116.541 237.434 116.541L234.411 99.7189L238.31 101.335C238.31 101.335 225.738 79.3349 222.668 73.4372C217.54 63.5878 230.155 53.3931 237.887 64.1692Z" fill="#FFB66F"/>
<path fill-rule="evenodd" clip-rule="evenodd" d="M238.309 101.335C238.309 101.335 244.695 104.414 243.892 103.06C243.089 101.705 235.9 97.0568 235.9 97.0568L238.309 101.335Z" fill="black" fill-opacity="0.159856"/>
<path fill-rule="evenodd" clip-rule="evenodd" d="M237.701 100.558L239.789 118.748L231.531 116.156L232.777 98.3301L237.701 100.558Z" fill="#FFEDC2"/>
<path fill-rule="evenodd" clip-rule="evenodd" d="M128.556 220.843C128.556 220.843 128.709 232.749 118.772 237.2C108.842 241.651 101.766 241.383 102.667 244.824C103.567 248.265 129.415 248.126 131.829 245.435C133.887 243.146 138.36 221.828 139.592 223.458L128.556 220.843Z" fill="url(#paint1_linear)"/>
<path fill-rule="evenodd" clip-rule="evenodd" d="M137.825 230.228C137.825 230.228 135.737 235.284 135.553 238.348C135.368 241.413 130.614 250.126 130.614 250.126L126.859 250.591L126.516 247.432C126.516 247.432 121.08 249.72 117.67 250.085C114.26 250.451 102.564 249.078 100.239 247.169C97.9122 245.261 99.0875 242.575 105.801 240.937C112.514 239.3 122.944 234.517 124.929 231.053C126.913 227.589 126.925 227.679 126.925 227.679L126.886 233.451C126.886 233.451 128.604 230.413 130.632 230.007C132.659 229.602 137.825 230.228 137.825 230.228Z" fill="#323740"/>
<path fill-rule="evenodd" clip-rule="evenodd" d="M229.791 127.604C229.791 127.604 246.486 152.441 226.525 163.534C209.478 173.008 156.9 161.911 156.9 161.911C156.9 161.911 157.833 169.324 156.9 175.936C154.465 193.204 142.88 221.972 140.429 225.587C137.04 230.586 126.716 226.816 126.521 222.654C126.327 218.491 134.304 165.33 135.517 155.193C136.724 145.055 140.535 143.582 151.664 140.811C154.22 140.174 184.455 132.756 187.225 132.972C211.024 134.83 229.791 127.604 229.791 127.604Z" fill="#42474F"/>
<path opacity="0.439941" fill-rule="evenodd" clip-rule="evenodd" d="M217.659 160.774C200.399 162.683 154.703 158.748 152.868 160.536C151.116 162.244 151.408 191.951 147.477 209.144C151.349 198.726 155.541 185.549 156.897 175.936C157.829 169.324 156.897 161.911 156.897 161.911L158.682 162.263C167.998 164.05 211.186 171.72 226.521 163.534C235.516 158.733 238.996 151.299 236.961 141.233C234.508 153.108 228.074 159.622 217.659 160.774Z" fill="white" fill-opacity="0.192499"/>
<ellipse rx="2.89909" ry="5.25424" transform="matrix(-0.97437 0.224951 0.224951 0.97437 128.151 156.554)" fill="white" fill-opacity="0.192499"/>
<ellipse rx="3.86421" ry="5.73377" transform="matrix(-0.961262 -0.275637 -0.275637 0.961262 141.692 153.212)" fill="white" fill-opacity="0.192499"/>
<path d="M98.5597 60.4417C97.7289 58.9008 98.725 57.0092 100.466 56.8225L127.238 53.9495C128.215 53.8447 129.161 54.3303 129.645 55.1853L146.907 85.6706C147.748 87.1549 146.862 89.0236 145.181 89.313L118.51 93.9046C117.466 94.0842 116.425 93.5775 115.923 92.6457L98.5597 60.4417Z" fill="#7596FF"/>
<path fill-rule="evenodd" clip-rule="evenodd" d="M99.7547 60.3093C98.9601 58.815 99.874 56.9829 101.546 56.7188L127.653 52.5929C128.692 52.4288 129.72 52.9417 130.214 53.8699L146.803 85.0703C147.598 86.5646 146.684 88.3967 145.012 88.6609L118.904 92.7867C117.866 92.9508 116.838 92.438 116.344 91.5097L99.7547 60.3093Z" fill="url(#paint2_linear)"/>
<path d="M100.675 58.8718L128.685 54.0989L145.887 86.4509L118.011 90.6947L100.675 58.8718Z" fill="white"/>
<path d="M107.791 54.819C107.502 54.3265 107.807 53.6976 108.373 53.6204L119.182 52.1482C119.821 52.0612 120.45 52.3662 120.777 52.9218L122.672 56.1398C122.962 56.6324 122.657 57.2613 122.09 57.3384L111.281 58.8106C110.642 58.8976 110.013 58.5927 109.686 58.037L107.791 54.819Z" fill="#7367F0"/>
<path fill-rule="evenodd" clip-rule="evenodd" d="M122.53 63.5524C122.903 63.354 123.366 63.495 123.564 63.8672C123.747 64.2129 123.638 64.6364 123.323 64.854L123.246 64.9004L110.78 67.0004C110.407 67.1988 109.944 67.0578 109.747 66.6856C109.563 66.3399 109.672 65.9164 109.987 65.6989L110.064 65.6524L122.53 63.5524Z" fill="#A7C3FF"/>
<path fill-rule="evenodd" clip-rule="evenodd" d="M126.113 70.2924C126.486 70.094 126.949 70.235 127.147 70.6072C127.331 70.9529 127.222 71.3764 126.906 71.594L126.83 71.6404L114.364 73.7404C113.991 73.9388 113.528 73.7978 113.33 73.4256C113.146 73.0799 113.256 72.6564 113.571 72.4388L113.647 72.3924L126.113 70.2924Z" fill="#A7C3FF"/>
<path fill-rule="evenodd" clip-rule="evenodd" d="M129.696 77.0324C130.069 76.834 130.532 76.975 130.73 77.3472C130.913 77.6928 130.804 78.1164 130.489 78.3339L130.412 78.3804L117.946 80.4804C117.573 80.6788 117.11 80.5378 116.913 80.1656C116.729 79.8199 116.838 79.3964 117.153 79.1788L117.23 79.1324L129.696 77.0324Z" fill="#A7C3FF"/>
<path fill-rule="evenodd" clip-rule="evenodd" d="M98.135 132.384H117.437V252.268H98.135V132.384Z" fill="#D2D2D2"/>
<path fill-rule="evenodd" clip-rule="evenodd" d="M98.135 127.674H109.716V252.268H98.135V127.674Z" fill="#EBEBEB"/>
<path fill-rule="evenodd" clip-rule="evenodd" d="M10.3203 132.384H105.863V168.341H29.6219V252.268H10.3203V132.384Z" fill="#D2D2D2"/>
<path fill-rule="evenodd" clip-rule="evenodd" d="M10.3203 132.384H21.9013V252.268H10.3203V132.384Z" fill="#EBEBEB"/>
<path fill-rule="evenodd" clip-rule="evenodd" d="M249.249 132.384H268.55V252.268H249.249V132.384Z" fill="#C5C5C5"/>
<path fill-rule="evenodd" clip-rule="evenodd" d="M161.437 132.384H256.98V176.894H180.738V252.268H161.437V132.384Z" fill="#D2D2D2"/>
<path fill-rule="evenodd" clip-rule="evenodd" d="M25.7512 127.674L172.903 127.674V176.806H25.7512V127.674Z" fill="#EBEBEB"/>
<path fill-rule="evenodd" clip-rule="evenodd" d="M158.539 132.384H170.12V176.806H158.539V132.384Z" fill="#C3C3C3"/>
<path fill-rule="evenodd" clip-rule="evenodd" d="M161.437 132.384H173.018V252.268H161.437V132.384Z" fill="#EBEBEB"/>
<path fill-rule="evenodd" clip-rule="evenodd" d="M165.34 134.739C165.34 130.837 168.503 127.674 172.405 127.674L272.109 127.674C276.01 127.674 279.173 130.837 279.173 134.739C279.173 138.641 276.01 141.804 272.109 141.804H172.405C168.503 141.804 165.34 138.641 165.34 134.739Z" fill="#C5C5C5"/>
<path fill-rule="evenodd" clip-rule="evenodd" d="M14.2844 130.5H161.436V144.63H14.2844V130.5Z" fill="#D2D2D2"/>
<path fill-rule="evenodd" clip-rule="evenodd" d="M0 134.739C0 130.837 3.16299 127.674 7.06474 127.674H175.602C179.504 127.674 182.667 130.837 182.667 134.739C182.667 138.641 179.504 141.804 175.602 141.804H7.06474C3.16299 141.804 0 138.641 0 134.739Z" fill="#EBEBEB"/>
<path fill-rule="evenodd" clip-rule="evenodd" d="M199.15 113.226H203.971C204.902 113.226 205.656 113.947 205.656 114.837V117.044C205.656 119.153 203.868 120.863 201.662 120.863H199.15C198.751 120.863 198.428 120.553 198.428 120.172C198.428 119.791 198.751 119.481 199.15 119.481H201.662C203.07 119.481 204.211 118.39 204.211 117.044V114.837C204.211 114.71 204.104 114.607 203.971 114.607H199.15C198.751 114.607 198.428 114.298 198.428 113.916C198.428 113.535 198.751 113.226 199.15 113.226Z" fill="#8C81FF"/>
<path fill-rule="evenodd" clip-rule="evenodd" d="M183.145 111.469C182.081 111.469 181.218 112.294 181.218 113.311V117.914C181.218 121.229 183.836 123.959 187.203 124.319L187.204 125.28H195.637L195.637 124.298C198.919 123.864 201.447 121.171 201.447 117.914V113.311C201.447 112.294 200.584 111.469 199.52 111.469H183.145Z" fill="#7367F0"/>
<path fill-rule="evenodd" clip-rule="evenodd" d="M201.804 124.835C201.804 124.572 201.592 124.36 201.329 124.36H182.051C181.789 124.36 181.576 124.572 181.576 124.835C181.576 125.085 181.771 125.293 182.021 125.309L189.133 125.761H194.19L201.359 125.309C201.609 125.293 201.804 125.085 201.804 124.835Z" fill="#8C81FF"/>
<path fill-rule="evenodd" clip-rule="evenodd" d="M70.6924 124.481C70.6924 123.755 71.2809 123.167 72.0068 123.167H164.521C165.247 123.167 165.835 123.755 165.835 124.481C165.835 125.207 165.247 125.796 164.521 125.796H72.0068C71.2808 125.796 70.6924 125.207 70.6924 124.481Z" fill="#8C81FF"/>
<path fill-rule="evenodd" clip-rule="evenodd" d="M133.367 124.481C133.367 123.755 133.956 123.167 134.682 123.167H164.522C165.247 123.167 165.836 123.755 165.836 124.481C165.836 125.207 165.247 125.796 164.522 125.796H134.682C133.956 125.796 133.367 125.207 133.367 124.481Z" fill="#7367F0"/>
<path fill-rule="evenodd" clip-rule="evenodd" d="M66.2289 87.5385C65.9515 85.3855 67.6285 83.4785 69.7994 83.4785H127.151C128.962 83.4785 130.491 84.823 130.722 86.6185L134.922 119.22C135.2 121.373 133.523 123.28 131.352 123.28H73.9997C72.1893 123.28 70.6605 121.936 70.4292 120.14L66.2289 87.5385Z" fill="#7367F0"/>
<path fill-rule="evenodd" clip-rule="evenodd" d="M66.2289 87.5385C65.9515 85.3855 67.6285 83.4785 69.7994 83.4785H125.1C126.911 83.4785 128.439 84.823 128.671 86.6185L132.871 119.22C133.148 121.373 131.471 123.28 129.301 123.28H73.9997C72.1893 123.28 70.6605 121.936 70.4292 120.14L66.2289 87.5385Z" fill="url(#paint3_linear)"/>
<ellipse rx="4.07313" ry="4.43741" transform="matrix(0.798636 -0.601814 0.601816 0.798635 98.4994 104.013)" fill="white"/>
<path fill-rule="evenodd" clip-rule="evenodd" d="M268.989 204.51C274.851 191.483 280.176 178.103 285.052 164.427C273.822 174.826 265.089 187.494 266.333 204.51H268.989Z" fill="#57E295"/>
<path fill-rule="evenodd" clip-rule="evenodd" d="M265.867 205.871C264.479 183.657 265.067 163.026 276.695 151.245C275.091 175.635 272.091 192.817 268.291 205.871H265.867Z" fill="#28C76F"/>
<path fill-rule="evenodd" clip-rule="evenodd" d="M265.331 203.558C258.834 188.034 252.306 183.585 246.91 167.65C264.57 176.647 265.677 184.076 269.144 203.558H265.331Z" fill="#57E295"/>
<path fill-rule="evenodd" clip-rule="evenodd" d="M261.837 203.557L250.182 188.034C255.811 189.61 265.219 192.163 265.219 203.557H261.837Z" fill="#28C76F"/>
<path fill-rule="evenodd" clip-rule="evenodd" d="M272.736 203.557H276.624C279.095 198.489 282.577 195 291 199.23C285.479 190.967 274.15 188.467 272.736 203.557Z" fill="#57E295"/>
<path fill-rule="evenodd" clip-rule="evenodd" d="M269.16 203.557H272.393C278.327 195.221 280.878 191.588 287.019 184.469C278.929 187.485 270.626 191.588 269.16 203.557Z" fill="#28C76F"/>
<path fill-rule="evenodd" clip-rule="evenodd" d="M261.246 201.73H277.323C277.936 201.73 278.432 202.218 278.432 202.819V205.813C282.498 210.849 284.531 215.884 284.531 220.919C284.531 225.8 282.795 230.68 279.323 235.56C279.116 235.852 278.776 236.026 278.414 236.026H260.155C259.793 236.026 259.454 235.852 259.246 235.56C255.774 230.68 254.038 225.8 254.038 220.919C254.038 215.979 255.995 211.039 259.909 206.098L260.137 205.813V202.819C260.137 202.218 260.633 201.73 261.246 201.73Z" fill="#7367F0"/>
<mask id="mask0" mask-type="alpha" maskUnits="userSpaceOnUse" x="254" y="201" width="31" height="36">
<path fill-rule="evenodd" clip-rule="evenodd" d="M261.246 201.73H277.323C277.936 201.73 278.432 202.218 278.432 202.819V205.813C282.498 210.849 284.531 215.884 284.531 220.919C284.531 225.8 282.795 230.68 279.323 235.56C279.116 235.852 278.776 236.026 278.414 236.026H260.155C259.793 236.026 259.454 235.852 259.246 235.56C255.774 230.68 254.038 225.8 254.038 220.919C254.038 215.979 255.995 211.039 259.909 206.098L260.137 205.813V202.819C260.137 202.218 260.633 201.73 261.246 201.73Z" fill="white"/>
</mask>
<g mask="url(#mask0)">
<path fill-rule="evenodd" clip-rule="evenodd" d="M250.161 200.787H264.575C257.674 216.561 271.287 225.901 264.575 241.615H250.161V200.787Z" fill="#857AF9"/>
</g>
<defs>
<linearGradient id="paint0_linear" x1="178.632" y1="212.293" x2="176.388" y2="245.292" gradientUnits="userSpaceOnUse">
<stop stop-color="#FDC6C6"/>
<stop offset="1" stop-color="#FAB2B2"/>
</linearGradient>
<linearGradient id="paint1_linear" x1="145.995" y1="214.371" x2="144.524" y2="246.138" gradientUnits="userSpaceOnUse">
<stop stop-color="#FDC6C6"/>
<stop offset="1" stop-color="#FAB2B2"/>
</linearGradient>
<linearGradient id="paint2_linear" x1="83.3688" y1="34.516" x2="119.928" y2="103.274" gradientUnits="userSpaceOnUse">
<stop stop-color="#7367F0"/>
<stop offset="1" stop-color="#8CA5FF"/>
</linearGradient>
<linearGradient id="paint3_linear" x1="60.3693" y1="62.3411" x2="60.3693" y2="123.28" gradientUnits="userSpaceOnUse">
<stop stop-color="#7367F0"/>
<stop offset="1" stop-color="#8CA5FF"/>
</linearGradient>
</defs>
</svg>
