<svg width="22" height="24" viewBox="0 0 22 24" fill="none" xmlns="http://www.w3.org/2000/svg">
<path d="M11.0004 0C5.21111 0 0.518608 4.6925 0.518608 10.4818C0.518608 14.4423 2.71392 17.8845 5.95238 19.6681L5.82911 24L10.7749 20.9519C10.8495 20.9536 10.9241 20.9636 11.0004 20.9636C16.7897 20.9636 21.4822 16.2711 21.4822 10.4818C21.4822 4.6925 16.7897 0 11.0004 0ZM12.3354 16.5898H9.64953V7.94438H12.3354V16.5898ZM10.9744 6.88529C10.125 6.88529 9.5598 6.28322 9.57825 5.54027C9.56064 4.76294 10.125 4.17847 10.992 4.17847C11.8583 4.17847 12.4083 4.76294 12.4259 5.54027C12.4251 6.28322 11.8566 6.88529 10.9744 6.88529Z" fill="#989898"/>
</svg>
