<svg width="16" height="18" viewBox="0 0 16 18" fill="none" xmlns="http://www.w3.org/2000/svg">
<path fill-rule="evenodd" clip-rule="evenodd" d="M8.3112 1.16796C8.11229 0.944015 7.76246 0.944015 7.56355 1.16796L1.12904 8.41213C0.842599 8.73462 1.07153 9.24418 1.50287 9.24418H3.93751C4.21365 9.24418 4.43751 9.46804 4.43751 9.74418V15.9942C4.43751 16.2704 4.66137 16.4942 4.93751 16.4942H10.9375C11.2137 16.4942 11.4375 16.2704 11.4375 15.9942V9.74418C11.4375 9.46804 11.6614 9.24418 11.9375 9.24418H14.3719C14.8032 9.24418 15.0322 8.73462 14.7457 8.41213L8.3112 1.16796L8.68503 0.835911L8.3112 1.16796ZM6.8159 0.503866C7.41263 -0.167956 8.46212 -0.167955 9.05886 0.503866L15.4934 7.74804C16.3527 8.71552 15.6659 10.2442 14.3719 10.2442H12.4375V15.9942C12.4375 16.8227 11.7659 17.4942 10.9375 17.4942H4.93751C4.10908 17.4942 3.43751 16.8227 3.43751 15.9942V10.2442H1.50287C0.208861 10.2442 -0.477949 8.71552 0.381391 7.74804L6.8159 0.503866Z" fill="white"/>
</svg>
