<svg width="18" height="23" viewBox="0 0 18 23" fill="none" xmlns="http://www.w3.org/2000/svg">
<path d="M9 0C4.035 0 0 4.00972 0 8.94362C0 11.9546 1.755 14.4738 3.795 16.2327C4.44 16.7842 5.565 17.6636 6.57 18.9605C7.68 20.4064 8.685 21.9566 9 23C9.315 21.9566 10.32 20.4064 11.43 18.9605C12.435 17.6636 13.56 16.7842 14.205 16.2327C16.245 14.4738 18 11.9546 18 8.94362C18 4.00972 13.965 0 9 0ZM9 3.81594C9.67762 3.81594 10.3486 3.94857 10.9746 4.20626C11.6007 4.46395 12.1695 4.84166 12.6487 5.3178C13.1278 5.79395 13.5079 6.35922 13.7672 6.98134C14.0265 7.60346 14.16 8.27024 14.16 8.94362C14.16 9.61699 14.0265 10.2838 13.7672 10.9059C13.5079 11.528 13.1278 12.0933 12.6487 12.5694C12.1695 13.0456 11.6007 13.4233 10.9746 13.681C10.3486 13.9387 9.67762 14.0713 9 14.0713C7.63148 14.0713 6.31902 13.5311 5.35133 12.5694C4.38364 11.6078 3.84 10.3036 3.84 8.94362C3.84 7.58367 4.38364 6.27943 5.35133 5.3178C6.31902 4.35618 7.63148 3.81594 9 3.81594Z" fill="#8EADFF"/>
</svg>
